<?xml version="1.0" encoding="UTF-8" standalone="no"?>
<svg
   id="autre"
   viewBox="0 0 160 160"
   version="1.1"
   sodipodi:docname="pommef_logo-05.svg"
   inkscape:version="1.4.3 (0d15f75, 2025-12-25)"
   xmlns:inkscape="http://www.inkscape.org/namespaces/inkscape"
   xmlns:sodipodi="http://sodipodi.sourceforge.net/DTD/sodipodi-0.dtd"
   xmlns="http://www.w3.org/2000/svg"
   xmlns:svg="http://www.w3.org/2000/svg">
  <sodipodi:namedview
     id="namedview10"
     pagecolor="#ffffff"
     bordercolor="#000000"
     borderopacity="0.25"
     inkscape:showpageshadow="2"
     inkscape:pageopacity="0.0"
     inkscape:pagecheckerboard="0"
     inkscape:deskcolor="#d1d1d1"
     inkscape:zoom="2.4082437"
     inkscape:cx="92.390981"
     inkscape:cy="64.154636"
     inkscape:window-width="2560"
     inkscape:window-height="1440"
     inkscape:window-x="0"
     inkscape:window-y="0"
     inkscape:window-maximized="0"
     inkscape:current-layer="autre" />
  <defs
     id="defs1">
    <style
       id="style1">
      .cls-1 {
        fill: #222526;
      }
    </style>
  </defs>
  <g
     id="g9"
     transform="matrix(1.196156,0,0,1,-23.689755,0)">
    <path
       class="cls-1"
       d="M 25.51,60.99 V 10.54 h 4.5 v 6.24 h 0.15 c 0.46,-1.33 1.1,-2.5 1.91,-3.5 0.81,-1 1.78,-1.78 2.9,-2.32 1.12,-0.54 2.39,-0.82 3.79,-0.82 2.44,0 4.5,0.75 6.15,2.25 1.65,1.5 2.93,3.67 3.81,6.51 0.88,2.84 1.32,6.32 1.32,10.43 v 0.04 c 0,4.14 -0.44,7.64 -1.32,10.51 -0.88,2.87 -2.17,5.05 -3.85,6.55 -1.68,1.5 -3.71,2.25 -6.08,2.25 -1.4,0 -2.67,-0.25 -3.79,-0.75 -1.12,-0.5 -2.09,-1.23 -2.9,-2.21 -0.81,-0.98 -1.46,-2.21 -1.94,-3.68 h -0.15 v 18.94 h -4.5 z M 37.74,44.51 c 1.62,0 3,-0.58 4.14,-1.74 1.14,-1.16 2,-2.87 2.6,-5.14 0.59,-2.26 0.89,-5.01 0.89,-8.26 v -0.04 c 0,-3.22 -0.29,-5.95 -0.87,-8.2 -0.58,-2.25 -1.44,-3.95 -2.59,-5.1 -1.15,-1.15 -2.54,-1.72 -4.16,-1.72 -1.74,0 -3.17,0.63 -4.3,1.89 -1.13,1.26 -1.97,3.02 -2.54,5.28 -0.57,2.26 -0.85,4.89 -0.85,7.89 v 0.07 c 0,3.02 0.29,5.66 0.85,7.91 0.56,2.25 1.42,4 2.56,5.26 1.14,1.26 2.56,1.89 4.28,1.89 z"
       id="path1" />
    <path
       class="cls-1"
       d="M 65.27,48.83 C 62.58,48.81 60.32,48.07 58.48,46.62 56.64,45.17 55.24,43 54.27,40.12 53.3,37.24 52.82,33.68 52.82,29.45 v -0.07 c 0,-4.21 0.48,-7.75 1.45,-10.63 0.97,-2.88 2.38,-5.06 4.23,-6.53 1.85,-1.47 4.09,-2.21 6.73,-2.21 2.64,0 4.96,0.74 6.81,2.21 1.85,1.47 3.25,3.65 4.21,6.51 0.96,2.86 1.43,6.42 1.43,10.65 v 0.07 c 0,4.23 -0.48,7.78 -1.43,10.65 -0.95,2.87 -2.36,5.04 -4.21,6.52 -1.85,1.48 -4.11,2.21 -6.77,2.21 z m 0,-4.21 c 1.65,0 3.05,-0.58 4.21,-1.74 1.16,-1.16 2.04,-2.87 2.65,-5.12 0.61,-2.25 0.91,-5.02 0.91,-8.31 v -0.07 c 0,-3.29 -0.3,-6.06 -0.91,-8.31 -0.61,-2.25 -1.48,-3.96 -2.63,-5.12 -1.15,-1.16 -2.57,-1.74 -4.27,-1.74 -1.7,0 -3.05,0.57 -4.21,1.72 -1.16,1.15 -2.04,2.85 -2.65,5.1 -0.61,2.25 -0.91,5.03 -0.91,8.35 v 0.07 c 0,3.29 0.3,6.06 0.91,8.31 0.61,2.25 1.48,3.96 2.63,5.12 1.15,1.16 2.57,1.74 4.26,1.74 z"
       id="path2" />
    <path
       class="cls-1"
       d="M 81.71,48.29 V 10.54 h 4.5 v 5.3 h 0.15 c 0.68,-1.72 1.69,-3.12 3.05,-4.19 1.36,-1.07 3.07,-1.61 5.15,-1.61 1.38,0 2.61,0.25 3.7,0.74 1.09,0.49 2.02,1.22 2.78,2.18 0.76,0.96 1.34,2.09 1.72,3.39 h 0.11 c 0.51,-1.23 1.17,-2.33 2,-3.28 0.83,-0.95 1.8,-1.7 2.94,-2.23 1.14,-0.53 2.46,-0.8 3.96,-0.8 1.91,0 3.53,0.45 4.86,1.36 1.33,0.91 2.35,2.21 3.07,3.92 0.72,1.71 1.07,3.77 1.07,6.19 v 26.78 h -4.54 V 22.23 c 0,-1.67 -0.22,-3.1 -0.65,-4.3 -0.43,-1.2 -1.09,-2.12 -1.98,-2.76 -0.89,-0.64 -1.99,-0.96 -3.32,-0.96 -1.45,0 -2.68,0.39 -3.68,1.16 -1,0.77 -1.77,1.84 -2.29,3.19 -0.52,1.35 -0.78,2.9 -0.78,4.65 V 48.29 H 98.99 V 22.2 c 0,-1.65 -0.23,-3.07 -0.69,-4.26 -0.46,-1.19 -1.13,-2.12 -2.01,-2.76 -0.88,-0.64 -1.98,-0.96 -3.29,-0.96 -1.43,0 -2.64,0.39 -3.65,1.18 -1.01,0.79 -1.78,1.88 -2.32,3.27 -0.54,1.39 -0.82,2.97 -0.82,4.74 v 24.9 h -4.5 z"
       id="path3" />
    <path
       class="cls-1"
       d="M 25.51,110.54 V 60.09 h 4.5 v 6.24 h 0.15 c 0.46,-1.33 1.1,-2.5 1.91,-3.5 0.81,-1 1.78,-1.78 2.9,-2.32 1.12,-0.54 2.39,-0.82 3.79,-0.82 2.44,0 4.5,0.75 6.15,2.25 1.65,1.5 2.93,3.67 3.81,6.52 0.88,2.85 1.32,6.32 1.32,10.43 v 0.04 c 0,4.14 -0.44,7.64 -1.32,10.51 -0.88,2.86 -2.17,5.05 -3.85,6.55 -1.68,1.5 -3.71,2.25 -6.08,2.25 -1.4,0 -2.67,-0.25 -3.79,-0.74 C 33.87,97 32.91,96.27 32.1,95.28 31.29,94.3 30.64,93.07 30.16,91.6 h -0.15 v 18.94 z M 37.74,94.06 c 1.62,0 3,-0.58 4.14,-1.74 1.14,-1.16 2,-2.87 2.6,-5.13 0.6,-2.26 0.89,-5.02 0.89,-8.26 v -0.04 c 0,-3.22 -0.29,-5.95 -0.87,-8.2 -0.58,-2.25 -1.44,-3.95 -2.59,-5.1 -1.15,-1.15 -2.54,-1.73 -4.16,-1.73 -1.74,0 -3.17,0.63 -4.3,1.89 -1.13,1.26 -1.97,3.02 -2.54,5.28 -0.57,2.26 -0.85,4.89 -0.85,7.89 v 0.07 c 0,3.02 0.29,5.66 0.85,7.91 0.56,2.25 1.42,4 2.56,5.26 1.14,1.26 2.56,1.89 4.28,1.89 z"
       id="path4" />
    <path
       class="cls-1"
       d="M 65.27,98.38 C 62.58,98.36 60.32,97.62 58.48,96.17 56.64,94.72 55.24,92.55 54.27,89.67 53.3,86.79 52.82,83.23 52.82,79 v -0.07 c 0,-4.21 0.48,-7.75 1.45,-10.63 0.97,-2.88 2.38,-5.06 4.23,-6.53 1.85,-1.47 4.09,-2.21 6.73,-2.21 2.64,0 4.96,0.74 6.81,2.21 1.85,1.47 3.25,3.65 4.21,6.52 0.96,2.87 1.43,6.42 1.43,10.65 v 0.07 c 0,4.23 -0.48,7.79 -1.43,10.65 -0.96,2.86 -2.36,5.04 -4.21,6.51 -1.85,1.47 -4.11,2.21 -6.77,2.21 z m 0,-4.21 c 1.65,0 3.05,-0.58 4.21,-1.74 1.16,-1.16 2.04,-2.87 2.65,-5.12 0.61,-2.25 0.91,-5.02 0.91,-8.31 v -0.07 c 0,-3.29 -0.3,-6.06 -0.91,-8.31 -0.61,-2.25 -1.48,-3.96 -2.63,-5.12 -1.15,-1.16 -2.57,-1.74 -4.27,-1.74 -1.7,0 -3.05,0.58 -4.21,1.73 -1.16,1.15 -2.04,2.85 -2.65,5.1 -0.61,2.25 -0.91,5.03 -0.91,8.35 v 0.07 c 0,3.29 0.3,6.06 0.91,8.31 0.61,2.25 1.48,3.96 2.63,5.12 1.15,1.16 2.57,1.74 4.26,1.74 z"
       id="path5" />
    <path
       class="cls-1"
       d="M 81.71,97.84 V 60.1 h 4.5 v 5.3 h 0.15 c 0.68,-1.72 1.69,-3.11 3.05,-4.19 1.36,-1.08 3.07,-1.62 5.15,-1.62 1.38,0 2.61,0.25 3.7,0.75 1.09,0.5 2.02,1.22 2.78,2.18 0.76,0.96 1.34,2.09 1.72,3.39 h 0.11 c 0.51,-1.23 1.17,-2.33 2,-3.28 0.83,-0.95 1.8,-1.7 2.94,-2.23 1.14,-0.53 2.46,-0.8 3.96,-0.8 1.91,0 3.53,0.45 4.86,1.36 1.33,0.91 2.35,2.21 3.07,3.92 0.72,1.71 1.07,3.77 1.07,6.19 v 26.78 h -4.54 V 71.79 c 0,-1.67 -0.22,-3.1 -0.65,-4.3 -0.43,-1.2 -1.09,-2.12 -1.98,-2.76 -0.89,-0.64 -1.99,-0.96 -3.32,-0.96 -1.45,0 -2.68,0.39 -3.68,1.16 -1,0.77 -1.77,1.84 -2.29,3.19 -0.52,1.35 -0.78,2.9 -0.78,4.65 V 97.85 H 98.99 V 71.76 c 0,-1.65 -0.23,-3.07 -0.69,-4.26 -0.46,-1.19 -1.13,-2.12 -2.01,-2.76 -0.88,-0.64 -1.98,-0.96 -3.29,-0.96 -1.43,0 -2.64,0.39 -3.65,1.18 -1.01,0.79 -1.78,1.88 -2.32,3.27 -0.54,1.39 -0.82,2.97 -0.82,4.73 v 24.9 h -4.5 z"
       id="path6" />
    <path
       class="cls-1"
       d="m 25.51,147.39 v -37.74 h 4.5 v 5.3 h 0.15 c 0.68,-1.72 1.69,-3.11 3.05,-4.19 1.36,-1.08 3.07,-1.62 5.15,-1.62 1.38,0 2.61,0.25 3.7,0.75 1.09,0.5 2.02,1.22 2.78,2.18 0.76,0.96 1.34,2.09 1.72,3.39 h 0.11 c 0.51,-1.23 1.17,-2.33 2,-3.29 0.82,-0.95 1.8,-1.7 2.94,-2.23 1.14,-0.53 2.46,-0.8 3.96,-0.8 1.91,0 3.53,0.45 4.86,1.36 1.33,0.91 2.35,2.22 3.07,3.92 0.71,1.71 1.07,3.77 1.07,6.19 v 26.78 h -4.54 v -26.06 c 0,-1.67 -0.22,-3.1 -0.65,-4.3 -0.44,-1.2 -1.09,-2.11 -1.98,-2.76 -0.88,-0.64 -1.99,-0.96 -3.32,-0.96 -1.45,0 -2.68,0.39 -3.68,1.16 -1,0.77 -1.77,1.84 -2.29,3.19 -0.52,1.35 -0.78,2.9 -0.78,4.65 v 25.08 H 42.79 V 121.3 c 0,-1.65 -0.23,-3.07 -0.69,-4.27 -0.46,-1.2 -1.13,-2.11 -2.01,-2.76 -0.88,-0.64 -1.98,-0.96 -3.29,-0.96 -1.43,0 -2.64,0.39 -3.65,1.18 -1,0.79 -1.78,1.88 -2.32,3.27 -0.54,1.39 -0.82,2.97 -0.82,4.74 v 24.9 h -4.5 z"
       id="path7" />
    <path
       class="cls-1"
       d="m 80.44,147.93 c -2.59,0 -4.78,-0.74 -6.59,-2.23 -1.8,-1.49 -3.17,-3.66 -4.1,-6.53 -0.93,-2.86 -1.4,-6.39 -1.4,-10.58 v -0.04 c 0,-4.23 0.45,-7.79 1.36,-10.67 0.91,-2.88 2.24,-5.06 3.99,-6.55 1.75,-1.49 3.89,-2.23 6.4,-2.23 2.51,0 4.62,0.73 6.37,2.19 1.75,1.47 3.08,3.61 3.99,6.43 0.91,2.82 1.36,6.22 1.36,10.21 v 2.03 H 70.95 v -3.74 H 89.6 l -2.32,3.34 v -2.4 c 0,-2.98 -0.29,-5.49 -0.87,-7.55 -0.58,-2.06 -1.4,-3.62 -2.47,-4.7 -1.06,-1.07 -2.33,-1.61 -3.81,-1.61 -1.48,0 -2.75,0.54 -3.81,1.63 -1.06,1.09 -1.89,2.66 -2.47,4.72 -0.58,2.06 -0.87,4.56 -0.87,7.51 v 2.4 c 0,3.1 0.31,5.69 0.93,7.78 0.62,2.1 1.48,3.68 2.59,4.76 1.11,1.08 2.43,1.61 3.96,1.61 1.23,0 2.31,-0.28 3.23,-0.83 0.92,-0.55 1.68,-1.38 2.27,-2.47 0.59,-1.09 0.98,-2.36 1.18,-3.81 l 0.15,-0.87 h 4.28 l -0.11,0.91 c -0.24,1.72 -0.67,3.27 -1.27,4.66 -0.6,1.39 -1.37,2.57 -2.3,3.56 -0.93,0.98 -2.03,1.73 -3.29,2.27 -1.26,0.54 -2.65,0.8 -4.17,0.8 z"
       id="path8" />
    <path
       class="cls-1"
       d="M 97.53,147.39 V 113.6 h -4.28 v -3.96 h 4.28 v -6.42 c 0,-1.94 0.33,-3.54 0.98,-4.83 0.65,-1.29 1.6,-2.25 2.83,-2.92 1.23,-0.66 2.73,-1 4.5,-1 0.58,0 1.1,0.02 1.56,0.07 0.46,0.05 0.87,0.11 1.23,0.18 v 3.85 c -0.31,-0.05 -0.65,-0.08 -1.02,-0.11 -0.37,-0.03 -0.74,-0.04 -1.13,-0.04 -1.5,0 -2.62,0.41 -3.36,1.22 -0.74,0.81 -1.11,2.07 -1.11,3.79 v 6.21 h 6.42 v 3.96 h -6.39 v 33.79 H 97.5 Z"
       id="path9" />
  </g>
  <path
     class="cls-1"
     d="M134.49,150h-27.48v-4.13h27.48v4.13Z"
     id="path10" />
</svg>
